<?xml version="1.0" encoding="utf-8"?>
<svg width="1280px" height="720px" viewBox="0 0 1280 720" version="1.1" xmlns:xlink="http://www.w3.org/1999/xlink" xmlns="http://www.w3.org/2000/svg">
  <desc>Created with Lunacy</desc>
  <defs>
    <rect width="1280" height="720" id="artboard_1" />
    <clipPath id="clip_1">
      <use xlink:href="#artboard_1" clip-rule="evenodd" />
    </clipPath>
  </defs>
  <g id="Title" clip-path="url(#clip_1)">
    <use xlink:href="#artboard_1" stroke="none" fill="#F7DF1E" />
    <g id="Awesome-Ponyfills" transform="translate(528.9999 184)">
      <g id="Awesome">
        <path d="M3.36 137.016L24.96 137.016L30.08 124.696L74.24 124.696L79.36 137.016L102.88 137.016L53.12 27.2556L51.2 27.2556L3.36 137.016ZM139.2 138.776L140.96 138.776L156.64 111.416C159.36 106.616 161.76 97.8156 161.76 97.8156C161.76 97.8156 163.84 106.456 166.56 111.416L181.28 138.776L183.2 138.776L215.04 68.8556L193.44 68.8556L185.44 88.2156C183.04 93.8156 180.48 103.416 180.48 103.416C180.48 103.416 177.6 93.6556 174.56 88.2156L162.72 67.0956L161.12 67.0956L149.92 88.2156C146.88 93.8156 144.32 103.416 144.32 103.416C144.32 103.416 141.76 93.9756 139.36 88.2156L131.52 68.8556L107.68 68.8556L139.2 138.776ZM296.32 109.496L244.64 109.496C246.72 116.536 252.48 120.536 262.24 120.536C270.08 120.536 276 117.496 279.36 115.096L291.68 128.376C285.12 134.136 276.8 138.456 262.56 138.456C238.24 138.456 222.56 123.736 222.56 102.776C222.56 82.1356 239.04 67.4156 260.16 67.4156C284.64 67.4156 297.92 85.6556 296.32 109.496ZM337.12 138.456C358.56 138.456 365.12 128.216 365.12 115.736C365.12 101.336 352.64 96.6956 342.72 94.4556C333.44 92.3756 329.12 91.8956 329.12 88.0556C329.12 85.3356 331.52 84.0556 336.48 84.0556C341.6 84.0556 346.4 86.4556 349.6 89.1756L361.12 76.8556C355.52 71.0956 347.52 67.4156 336.32 67.4156C321.76 67.4156 309.92 73.6556 309.92 89.0156C309.92 103.256 320.32 108.376 329.6 110.776C340.64 113.656 344.96 113.656 344.96 117.336C344.96 120.216 342.72 121.496 335.68 121.496C329.28 121.496 323.36 118.776 318.72 114.296L306.08 125.496C312 132.536 321.28 138.456 337.12 138.456ZM451.04 103.096C451.04 123.736 434.72 138.456 413.6 138.456C392.48 138.456 376 123.736 376 103.096C376 82.2956 392.48 67.4156 413.6 67.4156C434.72 67.4156 451.04 82.2956 451.04 103.096ZM465.6 137.016L487.2 137.016L487.2 100.536C487.2 91.2556 491.04 87.0956 499.36 87.0956C507.52 87.0956 509.92 91.4156 509.92 99.4156L509.92 137.016L531.36 137.016L531.36 100.536C531.36 91.2556 535.04 87.0956 543.36 87.0956C551.52 87.0956 554.08 91.4156 554.08 99.4156L554.08 137.016L575.52 137.016L575.52 97.4956C575.52 78.7756 565.6 67.4156 548.48 67.4156C538.4 67.4156 530.88 72.0556 525.28 79.0956C521.12 71.0956 514.88 67.4156 506.08 67.4156C497.92 67.4156 491.52 71.0956 486.72 79.4156L487.2 68.8556L465.6 68.8556L465.6 137.016ZM663.36 109.496L611.68 109.496C613.76 116.536 619.52 120.536 629.28 120.536C637.12 120.536 643.04 117.496 646.4 115.096L658.72 128.376C652.16 134.136 643.84 138.456 629.6 138.456C605.28 138.456 589.6 123.736 589.6 102.776C589.6 82.1356 606.08 67.4156 627.2 67.4156C651.68 67.4156 664.96 85.6556 663.36 109.496ZM37.6 105.976L45.44 87.0956C48.64 79.4156 51.84 67.5756 51.84 67.5756C51.84 67.5756 55.2 79.4156 58.4 87.0956L66.24 105.976L37.6 105.976ZM260.32 85.0156C251.84 85.0156 246.08 88.8556 244.32 97.0156L274.56 97.0156C273.6 89.4956 268.8 85.0156 260.32 85.0156ZM627.36 85.0156C618.88 85.0156 613.12 88.8556 611.36 97.0156L641.6 97.0156C640.64 89.4956 635.84 85.0156 627.36 85.0156ZM398.08 103.096C398.08 113.176 404 120.216 413.6 120.216C423.2 120.216 428.96 113.176 428.96 103.096C428.96 92.8556 423.2 85.9756 413.6 85.9756C404 85.9756 398.08 92.8556 398.08 103.096Z" />
      </g>
      <g id="Ponyfills">
        <path d="M384.48 299.016L362.88 299.016L362.88 248.776L351.52 248.776L351.52 230.856L362.88 230.856L362.88 207.976C362.88 190.376 371.2 181.416 388 181.416C397.6 181.416 404 184.296 408.96 190.056L397.28 204.456C395.68 202.536 393.76 200.776 390.4 200.776C386.88 200.776 384.48 202.696 384.48 207.656L384.48 230.856L402.88 230.856L402.88 248.776L384.48 248.776L384.48 299.016ZM478.24 299.016L456.8 299.016L456.8 183.496L478.24 183.496L478.24 299.016ZM496.16 299.016L517.6 299.016L517.6 183.496L496.16 183.496L496.16 299.016ZM11.36 299.016L33.76 299.016L33.76 274.216L41.44 274.216C71.68 274.216 90.08 258.536 90.08 232.296C90.08 206.056 71.84 190.216 41.44 190.216L11.36 190.216L11.36 299.016ZM427.84 219.496C435.2 219.496 441.44 213.896 441.44 205.896C441.44 198.056 435.2 192.456 427.84 192.456C420.48 192.456 414.08 198.056 414.08 205.896C414.08 213.896 420.48 219.496 427.84 219.496ZM33.76 254.536L33.76 209.896L40.8 209.896C58.72 209.896 67.04 217.256 67.04 232.296C67.04 247.176 59.04 254.536 40.8 254.536L33.76 254.536ZM139.84 300.456C160.96 300.456 177.28 285.736 177.28 265.096C177.28 244.296 160.96 229.416 139.84 229.416C118.72 229.416 102.24 244.296 102.24 265.096C102.24 285.736 118.72 300.456 139.84 300.456ZM213.44 299.016L191.84 299.016L191.84 230.856L213.44 230.856L212.96 242.056C217.12 233.896 225.12 229.416 234.56 229.416C249.44 229.416 260.16 240.296 260.16 259.656L260.16 299.016L238.56 299.016L238.56 261.096C238.56 253.416 234.88 249.096 227.2 249.096C218.56 249.096 213.44 253.896 213.44 262.536L213.44 299.016ZM589.12 277.736C589.12 290.216 582.56 300.456 561.12 300.456C545.28 300.456 536 294.536 530.08 287.496L542.72 276.296C547.36 280.776 553.28 283.496 559.68 283.496C566.72 283.496 568.96 282.216 568.96 279.336C568.96 275.656 564.64 275.656 553.6 272.776C544.32 270.376 533.92 265.256 533.92 251.016C533.92 235.656 545.76 229.416 560.32 229.416C571.52 229.416 579.52 233.096 585.12 238.856L573.6 251.176C570.4 248.456 565.6 246.056 560.48 246.056C555.52 246.056 553.12 247.336 553.12 250.056C553.12 253.896 557.44 254.376 566.72 256.456C576.64 258.696 589.12 263.336 589.12 277.736ZM278.88 332.936L300.48 332.936L345.12 230.856L323.2 230.856L312.64 257.096C310.08 263.336 308 274.696 308 274.696C308 274.696 305.6 263.496 303.2 257.096L293.44 230.856L269.6 230.856L296.64 292.616L278.88 332.936ZM416.96 299.016L438.56 299.016L438.56 230.856L416.96 230.856L416.96 299.016ZM139.84 282.216C130.24 282.216 124.32 275.176 124.32 265.096C124.32 254.856 130.24 247.976 139.84 247.976C149.44 247.976 155.2 254.856 155.2 265.096C155.2 275.176 149.44 282.216 139.84 282.216Z" />
      </g>
    </g>
    <g id="JS" transform="translate(65 205)">
      <path d="M409.4 221.139C409.4 271.539 369.8 299.139 316.6 299.139C264.6 299.139 231 274.339 214.6 241.939L260.2 215.539C272.2 235.139 287.8 249.539 315.4 249.539C338.6 249.539 353.4 237.939 353.4 221.939C353.4 202.739 338.2 195.939 312.6 184.739L298.6 178.739C258.2 161.539 231.4 139.939 231.4 94.3391C231.4 52.3391 263.4 20.3391 313.4 20.3391C349 20.3391 374.6 32.7391 393 65.1391L349.4 93.139C339.8 75.9391 329.4 69.139 313.4 69.139C297 69.139 286.6 79.539 286.6 93.139C286.6 109.939 297 116.739 321 127.139L335 133.139C382.6 153.539 409.4 174.339 409.4 221.139ZM184.2 214.739C184.2 272.739 150.2 299.139 100.6 299.139C55.8 299.139 29.8 275.939 16.6 247.939L62.2 220.339C71 235.939 79 249.139 98.2 249.139C116.6 249.139 128.2 241.939 128.2 213.939L128.2 23.5391L184.2 23.5391L184.2 214.739Z" />
    </g>
  </g>
</svg>